<svg width="23" height="21" viewBox="0 0 23 21" fill="grey" xmlns="http://www.w3.org/2000/svg">
<path d="M22.2496 11.0543C22.7326 10.4885 23 9.79542 23 9.07427C23 7.93012 22.2784 6.84712 21.1169 6.24319C20.8179 6.08773 20.4774 6.00592 20.1308 6.0062H13.2365L13.409 2.87442C13.4493 2.1176 13.1474 1.399 12.5609 0.851128C12.273 0.581087 11.9258 0.366233 11.5406 0.219843C11.1554 0.0734525 10.7404 -0.00136334 10.3212 1.88064e-05C8.82625 1.88064e-05 7.50375 0.8919 7.107 2.16856L4.63737 10.0936H4.62875V21H18.2074C18.4719 21 18.7306 20.9541 18.9692 20.8624C20.3377 20.3451 21.2204 19.1602 21.2204 17.8453C21.2204 17.5242 21.1686 17.2082 21.0651 16.9024C21.5481 16.3367 21.8155 15.6436 21.8155 14.9225C21.8155 14.6014 21.7638 14.2854 21.6603 13.9796C22.1433 13.4139 22.4106 12.7208 22.4106 11.9996C22.4049 11.6786 22.3531 11.36 22.2496 11.0543ZM0 10.909V20.1846C0 20.6356 0.411125 21 0.92 21H2.78875V10.0936H0.92C0.411125 10.0936 0 10.458 0 10.909Z" fill="current"/>
</svg>
