<svg width="136" height="37" viewBox="0 0 136 37" fill="none" xmlns="http://www.w3.org/2000/svg">
<path d="M2.58 32V9.65H8.37L11.91 19.31C12.36 20.6 12.72 22.01 13.14 23.36H13.29C13.74 22.01 14.1 20.6 14.52 19.31L17.94 9.65H23.76V32H18.87V24.35C18.87 22.13 19.29 18.8 19.59 16.61H19.44L17.58 21.95L14.58 30.11H11.64L8.61 21.95L6.81 16.61H6.69C6.96 18.8 7.38 22.13 7.38 24.35V32H2.58ZM52.965 32L47.295 14.93H52.665L54.735 22.79C55.185 24.47 55.575 26.24 56.025 28.04H56.175C56.595 26.24 57.015 24.47 57.435 22.79L59.535 14.93H64.665L59.145 32H52.965ZM67.2577 32V14.93H72.5977V32H67.2577ZM69.9277 12.56C68.1277 12.56 66.9577 11.48 66.9577 9.8C66.9577 8.15 68.1277 7.07 69.9277 7.07C71.6977 7.07 72.8977 8.15 72.8977 9.8C72.8977 11.48 71.6977 12.56 69.9277 12.56ZM84.6363 32.42C79.7163 32.42 75.9363 29.12 75.9363 23.45C75.9363 17.93 79.9263 14.51 84.0363 14.51C88.9563 14.51 91.3563 18.08 91.3563 22.73C91.3563 23.69 91.2363 24.62 91.1163 25.04H81.0963C81.5763 27.38 83.1963 28.34 85.3563 28.34C86.5863 28.34 87.7263 27.98 88.9563 27.26L90.7263 30.47C88.9563 31.73 86.6163 32.42 84.6363 32.42ZM81.0063 21.53H86.8263C86.8263 19.85 86.0763 18.59 84.1263 18.59C82.6563 18.59 81.3663 19.52 81.0063 21.53ZM97.1494 32L92.9494 14.93H98.2294L99.7594 22.55C100.029 24.26 100.209 25.94 100.479 27.68H100.629C100.929 25.94 101.199 24.23 101.619 22.55L103.389 14.93H107.979L109.809 22.55C110.199 24.26 110.499 25.94 110.859 27.68H111.009C111.279 25.94 111.459 24.26 111.759 22.55L113.229 14.93H118.179L114.159 32H107.919L106.479 25.49C106.149 23.9 105.879 22.34 105.579 20.48H105.429C105.159 22.34 104.919 23.9 104.619 25.49L103.239 32H97.1494Z" fill="black"/>
<g clip-path="url(#clip0_15_1283)">
<path d="M36 13C41.523 13 46 17.477 46 23C46.0013 24.5526 45.6405 26.0841 44.9463 27.4728C44.2521 28.8615 43.2436 30.0692 42.001 31H44C44.2652 31 44.5196 31.1054 44.7071 31.2929C44.8946 31.4804 45 31.7348 45 32C45 32.2652 44.8946 32.5196 44.7071 32.7071C44.5196 32.8946 44.2652 33 44 33H36C30.477 33 26 28.523 26 23C26 17.477 30.477 13 36 13ZM36 25C35.4696 25 34.9609 25.2107 34.5858 25.5858C34.2107 25.9609 34 26.4696 34 27C34 27.5304 34.2107 28.0391 34.5858 28.4142C34.9609 28.7893 35.4696 29 36 29C36.5304 29 37.0391 28.7893 37.4142 28.4142C37.7893 28.0391 38 27.5304 38 27C38 26.4696 37.7893 25.9609 37.4142 25.5858C37.0391 25.2107 36.5304 25 36 25ZM32 21C31.4696 21 30.9609 21.2107 30.5858 21.5858C30.2107 21.9609 30 22.4696 30 23C30 23.5304 30.2107 24.0391 30.5858 24.4142C30.9609 24.7893 31.4696 25 32 25C32.5304 25 33.0391 24.7893 33.4142 24.4142C33.7893 24.0391 34 23.5304 34 23C34 22.4696 33.7893 21.9609 33.4142 21.5858C33.0391 21.2107 32.5304 21 32 21ZM40 21C39.4696 21 38.9609 21.2107 38.5858 21.5858C38.2107 21.9609 38 22.4696 38 23C38 23.5304 38.2107 24.0391 38.5858 24.4142C38.9609 24.7893 39.4696 25 40 25C40.5304 25 41.0391 24.7893 41.4142 24.4142C41.7893 24.0391 42 23.5304 42 23C42 22.4696 41.7893 21.9609 41.4142 21.5858C41.0391 21.2107 40.5304 21 40 21ZM36 17C35.4696 17 34.9609 17.2107 34.5858 17.5858C34.2107 17.9609 34 18.4696 34 19C34 19.5304 34.2107 20.0391 34.5858 20.4142C34.9609 20.7893 35.4696 21 36 21C36.5304 21 37.0391 20.7893 37.4142 20.4142C37.7893 20.0391 38 19.5304 38 19C38 18.4696 37.7893 17.9609 37.4142 17.5858C37.0391 17.2107 36.5304 17 36 17Z" fill="#6528F7"/>
</g>
<defs>
<clipPath id="clip0_15_1283">
<rect width="24" height="24" fill="white" transform="translate(24 11)"/>
</clipPath>
</defs>
</svg>
