<svg width="121" height="38" viewBox="0 0 121 38" fill="none" xmlns="http://www.w3.org/2000/svg">
<path d="M2.58 35V12.65H8.37L11.91 22.31C12.36 23.6 12.72 25.01 13.14 26.36H13.29C13.74 25.01 14.1 23.6 14.52 22.31L17.94 12.65H23.76V35H18.87V27.35C18.87 25.13 19.29 21.8 19.59 19.61H19.44L17.58 24.95L14.58 33.11H11.64L8.61 24.95L6.81 19.61H6.69C6.96 21.8 7.38 25.13 7.38 27.35V35H2.58ZM52.965 35L47.295 17.93H52.665L54.735 25.79C55.185 27.47 55.575 29.24 56.025 31.04H56.175C56.595 29.24 57.015 27.47 57.435 25.79L59.535 17.93H64.665L59.145 35H52.965ZM67.2577 35V17.93H72.5977V35H67.2577ZM69.9277 15.56C68.1277 15.56 66.9577 14.48 66.9577 12.8C66.9577 11.15 68.1277 10.07 69.9277 10.07C71.6977 10.07 72.8977 11.15 72.8977 12.8C72.8977 14.48 71.6977 15.56 69.9277 15.56ZM84.6363 35.42C79.7163 35.42 75.9363 32.12 75.9363 26.45C75.9363 20.93 79.9263 17.51 84.0363 17.51C88.9563 17.51 91.3563 21.08 91.3563 25.73C91.3563 26.69 91.2363 27.62 91.1163 28.04H81.0963C81.5763 30.38 83.1963 31.34 85.3563 31.34C86.5863 31.34 87.7263 30.98 88.9563 30.26L90.7263 33.47C88.9563 34.73 86.6163 35.42 84.6363 35.42ZM81.0063 24.53H86.8263C86.8263 22.85 86.0763 21.59 84.1263 21.59C82.6563 21.59 81.3663 22.52 81.0063 24.53ZM97.1494 35L92.9494 17.93H98.2294L99.7594 25.55C100.029 27.26 100.209 28.94 100.479 30.68H100.629C100.929 28.94 101.199 27.23 101.619 25.55L103.389 17.93H107.979L109.809 25.55C110.199 27.26 110.499 28.94 110.859 30.68H111.009C111.279 28.94 111.459 27.26 111.759 25.55L113.229 17.93H118.179L114.159 35H107.919L106.479 28.49C106.149 26.9 105.879 25.34 105.579 23.48H105.429C105.159 25.34 104.919 26.9 104.619 28.49L103.239 35H97.1494Z" fill="black"/>
<path d="M36 16C41.523 16 46 20.477 46 26C46.0013 27.5526 45.6405 29.0841 44.9463 30.4728C44.2521 31.8615 43.2436 33.0692 42.001 34H44C44.2652 34 44.5196 34.1054 44.7071 34.2929C44.8946 34.4804 45 34.7348 45 35C45 35.2652 44.8946 35.5196 44.7071 35.7071C44.5196 35.8946 44.2652 36 44 36H36C30.477 36 26 31.523 26 26C26 20.477 30.477 16 36 16ZM36 28C35.4696 28 34.9609 28.2107 34.5858 28.5858C34.2107 28.9609 34 29.4696 34 30C34 30.5304 34.2107 31.0391 34.5858 31.4142C34.9609 31.7893 35.4696 32 36 32C36.5304 32 37.0391 31.7893 37.4142 31.4142C37.7893 31.0391 38 30.5304 38 30C38 29.4696 37.7893 28.9609 37.4142 28.5858C37.0391 28.2107 36.5304 28 36 28ZM32 24C31.4696 24 30.9609 24.2107 30.5858 24.5858C30.2107 24.9609 30 25.4696 30 26C30 26.5304 30.2107 27.0391 30.5858 27.4142C30.9609 27.7893 31.4696 28 32 28C32.5304 28 33.0391 27.7893 33.4142 27.4142C33.7893 27.0391 34 26.5304 34 26C34 25.4696 33.7893 24.9609 33.4142 24.5858C33.0391 24.2107 32.5304 24 32 24ZM40 24C39.4696 24 38.9609 24.2107 38.5858 24.5858C38.2107 24.9609 38 25.4696 38 26C38 26.5304 38.2107 27.0391 38.5858 27.4142C38.9609 27.7893 39.4696 28 40 28C40.5304 28 41.0391 27.7893 41.4142 27.4142C41.7893 27.0391 42 26.5304 42 26C42 25.4696 41.7893 24.9609 41.4142 24.5858C41.0391 24.2107 40.5304 24 40 24ZM36 20C35.4696 20 34.9609 20.2107 34.5858 20.5858C34.2107 20.9609 34 21.4696 34 22C34 22.5304 34.2107 23.0391 34.5858 23.4142C34.9609 23.7893 35.4696 24 36 24C36.5304 24 37.0391 23.7893 37.4142 23.4142C37.7893 23.0391 38 22.5304 38 22C38 21.4696 37.7893 20.9609 37.4142 20.5858C37.0391 20.2107 36.5304 20 36 20Z" fill="#6528F7"/>
</svg>
