<svg width="23" height="20" viewBox="0 0 23 20" fill="none" xmlns="http://www.w3.org/2000/svg">
<path fill-rule="evenodd" clip-rule="evenodd" d="M11.5 0.00100003C5.14856 0.00100003 8.94008e-06 4.47794 8.94008e-06 10.0009C-0.00210699 11.4743 0.371401 12.9299 1.09366 14.2628L0.0241588 18.7998C-0.0139188 18.9617 -0.00520965 19.1294 0.0495066 19.2878C0.104223 19.4461 0.203239 19.5902 0.337691 19.7071C0.472143 19.824 0.637836 19.9101 0.819937 19.9577C1.00204 20.0053 1.19487 20.0129 1.38116 19.9797L6.59871 19.0498C8.08681 19.6597 9.74971 19.9997 11.5 19.9997C17.8515 19.9997 23 15.5238 23 9.99987C23 4.47794 17.8515 0 11.5 0V0.00100003Z" fill="#888888"/>
</svg>
